# Blender v2.79 (sub 0) OBJ File: ''
# www.blender.org
mtllib daki-LOD-3.mtl
o baozhen_Mesh
v -0.434293 1.379100 -0.187790
v 0.017452 1.445947 -0.105126
v 0.074177 1.458931 0.061489
v -0.466174 -1.333317 -0.162947
v -0.352541 -1.296267 -0.231564
v 0.065478 -1.442586 -0.111367
v -0.546413 -1.529874 -0.016278
v -0.507082 -1.367881 0.127290
v -0.074241 -1.458941 0.061474
v 0.462148 0.358783 -0.144125
v 0.494994 1.462521 -0.111984
v 0.347158 1.290686 -0.233459
v 0.523902 1.532065 -0.002185
v 0.427969 -1.338550 -0.201988
v -0.478673 1.353714 0.147297
v -0.366401 1.322067 0.217048
v -0.537898 1.530450 0.018024
v -0.341657 -1.364395 0.221278
v 0.473443 1.351090 0.153557
v 0.351024 1.364050 0.218849
v 0.485919 -1.355060 0.149508
v 0.541609 -1.536263 0.003806
v 0.367403 -1.332782 0.215927
v -0.026424 0.865125 -0.275756
v -0.485565 1.427593 -0.135233
v -0.399487 1.313915 -0.208456
v -0.465244 -0.462904 -0.000926
v -0.545276 1.515387 0.007546
v 0.025290 -0.862453 -0.275962
v -0.482694 -1.459949 -0.113911
v -0.370346 -1.315120 -0.219851
v 0.069932 -1.450365 -0.105591
v -0.538368 -1.532106 -0.003076
v 0.030204 -1.452782 0.057004
v 0.462262 0.342519 -0.141614
v 0.489969 1.448442 -0.114821
v 0.372567 1.316430 -0.218751
v 0.523706 1.531989 -0.001683
v 0.440088 -1.338779 -0.195589
v -0.476907 0.880414 0.094664
v -0.479590 1.456258 0.123738
v -0.338138 1.293596 0.233203
v -0.010320 1.447334 0.103479
v -0.484392 -1.427217 0.135305
v -0.396879 -1.311743 0.209927
v 0.472811 1.420946 0.146667
v 0.354163 1.266742 0.230961
v 0.491999 -1.448539 0.112002
v 0.541182 -1.541541 -0.004807
v 0.290417 -1.265375 0.260349
vt 0.390818 0.915799
vt 0.259066 0.953449
vt 0.129611 0.902082
vt 0.451587 0.982592
vt 0.365656 0.097945
vt 0.418632 0.090162
vt 0.487491 0.646885
vt 0.227997 0.034569
vt 0.447375 0.021240
vt 0.248972 0.002337
vt 0.484205 0.208732
vt 0.087530 0.951587
vt 0.037435 0.603921
vt 0.246529 0.998619
vt 0.045223 0.980931
vt 0.095033 0.087752
vt 0.053796 0.014165
vt 0.865338 0.909274
vt 0.725307 0.976874
vt 0.951344 0.979709
vt 0.922249 0.919877
vt 0.824512 0.996123
vt 0.879112 0.086247
vt 0.623413 0.915062
vt 0.919422 0.081087
vt 0.777978 0.024188
vt 0.625927 0.095676
vt 0.954993 0.018727
vt 0.548502 0.982520
vt 0.581499 0.917781
vt 0.519618 0.356964
vt 0.547431 0.018738
vt 0.580814 0.082003
vt 0.407885 0.925637
vt 0.092470 0.944768
vt 0.359374 0.894637
vt 0.449712 0.982949
vt 0.481664 0.786811
vt 0.257480 0.775837
vt 0.372024 0.095953
vt 0.407363 0.049618
vt 0.226920 0.032544
vt 0.087051 0.096340
vt 0.238948 0.226476
vt 0.319827 0.004772
vt 0.450520 0.020417
vt 0.486409 0.506779
vt 0.122820 0.906127
vt 0.036896 0.598754
vt 0.246529 0.998619
vt 0.045227 0.980888
vt 0.039122 0.016302
vt 0.175379 0.001132
vt 0.976648 0.801824
vt 0.911776 0.952293
vt 0.953438 0.981847
vt 0.740189 0.955349
vt 0.870510 0.902306
vt 0.646420 0.116085
vt 0.862526 0.105292
vt 0.911198 0.075593
vt 0.595001 0.061315
vt 0.741239 0.015705
vt 0.990990 0.354124
vt 0.955267 0.019103
vt 0.594158 0.926390
vt 0.633298 0.886861
vt 0.548506 0.982486
vt 0.519618 0.356964
vt 0.542999 0.016257
vn -0.4808 0.1914 -0.8557
vn 0.0371 0.3860 -0.9217
vn 0.3356 0.1563 -0.9289
vn -0.9341 0.3330 0.1288
vn -0.3426 -0.1578 -0.9261
vn -0.5592 -0.2004 -0.8044
vn -0.6053 0.2145 0.7666
vn 0.1318 -0.3637 -0.9222
vn -0.9373 -0.3289 -0.1149
vn -0.2314 -0.5698 0.7885
vn -0.6770 -0.2289 0.6995
vn 0.7064 0.2615 -0.6577
vn 0.6135 0.0597 -0.7874
vn 0.2311 0.5697 0.7887
vn 0.9388 0.3440 -0.0161
vn 0.4505 -0.1766 -0.8751
vn 0.9419 -0.3348 0.0272
vn -0.3740 0.1691 0.9119
vn -0.3459 -0.1731 0.9221
vn 0.3575 0.1741 0.9175
vn 0.3764 -0.1711 0.9105
vn 0.5862 0.2096 0.7826
vn 0.6057 -0.2117 0.7670
vn -0.6389 0.2354 -0.7324
vn 0.6955 0.2576 -0.6708
vn -0.4159 0.1714 -0.8931
vn -0.9430 0.3284 0.0537
vn -0.7623 0.1763 0.6227
vn -0.0232 0.0951 -0.9952
vn -0.3735 -0.1662 -0.9126
vn -0.6922 -0.2623 -0.6723
vn 0.1468 -0.3816 -0.9126
vn 0.4719 -0.1799 -0.8631
vn 0.0222 -0.0947 -0.9953
vn 0.1012 -0.6099 0.7860
vn -0.9417 -0.3358 -0.0222
vn -0.9923 -0.1237 -0.0081
vn 0.3770 0.1669 -0.9110
vn 0.6204 0.0576 -0.7822
vn -0.0223 0.3917 0.9198
vn 0.9388 0.3441 -0.0124
vn 0.9412 -0.3360 -0.0344
vn -0.6634 0.2524 0.7044
vn -0.3282 0.1573 0.9314
vn 0.2590 -0.1414 0.9555
vn -0.4113 -0.1704 0.8954
vn -0.6378 -0.2355 0.7333
vn 0.7047 -0.2600 0.6602
vn 0.6006 0.2262 0.7669
vn 0.3450 0.1546 0.9258
usemtl initialShadingGroup
s 1
f 1/1/1 2/2/2 12/3/3
f 2/2/2 1/1/1 17/4/4
f 12/3/3 5/5/5 1/1/1
f 1/1/1 4/6/6 17/4/4
f 4/6/6 15/7/7 17/4/4
f 6/8/8 7/9/9 5/5/5
f 7/9/9 4/6/6 5/5/5
f 7/9/9 6/8/8 9/10/10
f 4/6/6 7/9/9 8/11/11
f 1/1/1 5/5/5 4/6/6
f 15/7/7 4/6/6 8/11/11
f 12/3/3 11/12/12 10/13/13
f 2/2/2 11/12/12 12/3/3
f 11/12/12 2/2/2 3/14/14
f 11/12/12 3/14/14 13/15/15
f 11/12/12 13/15/15 10/13/13
f 5/5/5 12/3/3 14/16/16
f 14/16/16 6/8/8 5/5/5
f 22/17/17 6/8/8 14/16/16
f 22/17/17 9/10/10 6/8/8
f 14/16/16 10/13/13 22/17/17
f 12/3/3 10/13/13 14/16/16
f 16/18/18 3/19/14 17/20/4
f 17/20/4 15/21/7 16/18/18
f 17/20/4 3/19/14 2/22/2
f 18/23/19 20/24/20 16/18/18
f 15/21/7 8/25/11 18/23/19
f 18/23/19 9/26/10 23/27/21
f 7/28/9 18/23/19 8/25/11
f 9/26/10 18/23/19 7/28/9
f 16/18/18 15/21/7 18/23/19
f 20/24/20 3/19/14 16/18/18
f 13/29/15 20/24/20 19/30/22
f 3/19/14 20/24/20 13/29/15
f 18/23/19 23/27/21 20/24/20
f 23/27/21 19/30/22 20/24/20
f 10/31/13 13/29/15 19/30/22
f 23/27/21 9/26/10 22/32/17
f 22/32/17 21/33/23 23/27/21
f 21/33/23 22/32/17 10/31/13
f 19/30/22 23/27/21 21/33/23
f 19/30/22 21/33/23 10/31/13
f 25/34/24 36/35/25 26/36/26
f 25/34/24 28/37/27 36/35/25
f 40/38/28 28/37/27 25/34/24
f 24/39/29 31/40/30 26/36/26
f 26/36/26 30/41/31 25/34/24
f 30/41/31 40/38/28 25/34/24
f 32/42/32 31/40/30 39/43/33
f 32/42/32 30/41/31 31/40/30
f 39/43/33 31/40/30 29/44/34
f 30/41/31 32/42/32 34/45/35
f 30/41/31 34/45/35 33/46/36
f 30/41/31 33/46/36 27/47/37
f 24/39/29 29/44/34 31/40/30
f 26/36/26 31/40/30 30/41/31
f 40/38/28 30/41/31 27/47/37
f 37/48/38 36/35/25 35/49/39
f 36/35/25 37/48/38 26/36/26
f 26/36/26 37/48/38 24/39/29
f 36/35/25 28/37/27 43/50/40
f 36/35/25 43/50/40 38/51/41
f 36/35/25 38/51/41 35/49/39
f 29/44/34 24/39/29 37/48/38
f 49/52/42 32/42/32 39/43/33
f 49/52/42 34/53/35 32/42/32
f 29/44/34 37/48/38 39/43/33
f 39/43/33 35/49/39 49/52/42
f 37/48/38 35/49/39 39/43/33
f 40/54/28 41/55/43 28/56/27
f 43/57/40 41/55/43 42/58/44
f 41/55/43 43/57/40 28/56/27
f 50/59/45 42/58/44 45/60/46
f 45/60/46 41/55/43 40/54/28
f 45/60/46 42/58/44 41/55/43
f 44/61/47 48/62/48 45/60/46
f 44/61/47 34/63/35 48/62/48
f 27/64/37 33/65/36 44/61/47
f 34/63/35 44/61/47 33/65/36
f 45/60/46 40/54/28 44/61/47
f 40/54/28 27/64/37 44/61/47
f 46/66/49 43/57/40 47/67/50
f 47/67/50 43/57/40 42/58/44
f 43/57/40 46/66/49 38/68/41
f 42/58/44 50/59/45 47/67/50
f 35/69/39 38/68/41 46/66/49
f 48/62/48 50/59/45 45/60/46
f 48/62/48 49/70/42 35/69/39
f 48/62/48 34/63/35 49/70/42
f 47/67/50 50/59/45 46/66/49
f 46/66/49 50/59/45 48/62/48
f 46/66/49 48/62/48 35/69/39
