o dakimakura-lod-3
v -0.306177 -0.532552 -0.206137
v 0.305892 -0.531756 -0.207108
v -0.299810 0.536637 -0.206804
v 0.302725 0.534485 -0.206425
v 0.306443 -0.532340 0.193408
v -0.304826 -0.532631 0.194184
v 0.303949 0.534523 0.193963
v -0.301507 0.535669 0.193875
v -0.315175 1.361602 0.181097
v 0.318893 1.359364 0.178788
v -0.316277 1.361704 -0.208022
v 0.317159 1.357589 -0.210477
v -0.319842 -1.359713 -0.204906
v 0.318161 -1.361116 -0.205015
v -0.319582 -1.359645 0.184528
v 0.316473 -1.360120 0.184040
v 0.434555 0.534087 -0.001716
v 0.438829 -0.531797 -0.002616
v -0.437205 -0.532328 -0.001211
v -0.432239 0.536175 -0.001767
v 0.503634 -1.520222 -0.004369
v -0.500078 1.528519 -0.005697
v 0.294893 -1.507649 -0.008800
v -0.300771 -1.506751 -0.006460
v -0.296826 1.510098 -0.010613
v 0.297847 1.506000 -0.013961
v -0.463193 1.351328 -0.000046
v 0.505793 1.524465 0.001297
v 0.476502 1.346018 -0.001388
v 0.465940 -1.349479 0.000419
v -0.505655 -1.523136 -0.001342
v -0.478812 -1.347555 0.001493
vn -0.7451 0.6668 0.0141
vn 0.0465 0.9989 0.0033
vn -0.3596 0.3405 -0.8688
vn 0.7359 0.6757 0.0437
vn 0.9937 -0.1078 0.0318
vn 0.3519 0.3381 -0.8728
vn 0.4765 -0.0045 -0.8792
vn -0.0380 0.9992 -0.0125
vn 0.3310 -0.3473 0.8774
vn 0.4643 0.0042 0.8857
vn -0.4658 0.0002 0.8849
vn -0.4794 0.0040 -0.8776
vn 0.4728 0.0065 -0.8812
vn 0.3551 -0.3457 -0.8686
vn -0.9919 -0.1188 0.0452
vn -0.3334 0.3393 0.8796
vn -0.3244 -0.3399 0.8827
vn -0.9942 0.1014 0.0345
vn -0.7367 -0.6760 0.0178
vn 0.0377 -0.9993 0.0058
vn -0.3495 -0.3434 -0.8717
vn -0.9998 0.0121 0.0141
vn 0.3234 0.3401 0.8831
vn 0.4682 0.0040 0.8836
vn 0.9999 -0.0080 0.0103
vn 0.9998 0.0181 0.0080
vn 0.9927 0.1156 0.0354
vn -0.9999 -0.0100 0.0121
vn -0.4681 0.0037 0.8837
vn 0.7601 -0.6497 0.0119
vn -0.4733 -0.0070 -0.8809
vn -0.0293 -0.9996 0.0018
vt 0.493805 0.984694
vt 0.386380 0.997727
vt 0.386380 0.924183
vt 0.006219 0.984695
vt 0.004574 0.924182
vt 0.113691 0.924183
vt 0.113691 0.666643
vt 0.113691 0.997740
vt 0.886388 0.075818
vt 0.886388 0.333357
vt 0.613699 0.333357
vt 0.386380 0.333357
vt 0.113691 0.333357
vt 0.113691 0.075818
vt 0.506162 0.924183
vt 0.613699 0.924183
vt 0.507898 0.984780
vt 0.613699 0.075818
vt 0.506114 0.075818
vt 0.507846 0.015220
vt 0.613699 0.003075
vt 0.613699 0.996923
vt 0.386380 0.075818
vt 0.495511 0.075818
vt 0.495753 0.333357
vt 0.886388 0.924183
vt 0.886388 0.996937
vt 0.886388 0.666643
vt 0.004327 0.666643
vt 0.004329 0.333357
vt 0.004624 0.075818
vt 0.505804 0.666643
vt 0.613699 0.666643
vt 0.495754 0.666643
vt 0.386380 0.002277
vt 0.493838 0.015306
vt 0.006176 0.015305
vt 0.495467 0.924183
vt 0.992393 0.015220
vt 0.993905 0.075818
vt 0.993958 0.924183
vt 0.992289 0.984780
vt 0.386380 0.666643
vt 0.613699 0.003075
vt 0.886388 0.003046
vt 0.505802 0.333357
vt 0.994272 0.666643
vt 0.113691 0.002251
vt 0.886388 0.003046
vt 0.994273 0.333357
vt 0.113691 0.002251
vt 0.004574 0.924183
vt 0.386380 0.002277
s 1
f 22/1/1 25/2/2 11/3/3
f 28/4/4 29/5/5 12/6/6
f 11/3/3 12/6/6 4/7/7
f 25/2/2 26/8/8 12/6/6
f 16/9/9 5/10/10 6/11/11
f 1/12/12 2/13/13 14/14/14
f 27/15/15 9/16/16 22/17/1
f 15/18/17 32/19/18 31/20/19
f 24/21/20 15/18/17 31/20/19
f 9/16/16 25/22/2 22/17/1
f 13/23/21 32/24/18 19/25/22
f 10/26/23 26/27/8 25/22/2
f 7/28/24 10/26/23 9/16/16
f 4/7/7 17/29/25 18/30/26
f 30/31/27 14/14/14 2/13/13
f 20/32/28 8/33/29 9/16/16
f 1/12/12 19/25/22 20/34/28
f 13/23/21 24/35/20 31/36/19
f 30/31/27 21/37/30 14/14/14
f 27/38/15 22/1/1 11/3/3
f 21/39/30 30/40/27 16/9/9
f 5/10/10 7/28/24 8/33/29
f 10/26/23 29/41/5 28/42/4
f 3/43/31 20/34/28 27/38/15
f 3/43/31 4/7/7 2/13/13
f 15/18/17 24/44/20 23/45/32
f 19/46/22 32/19/18 15/18/17
f 13/23/21 31/36/19 32/24/18
f 17/47/25 29/41/5 10/26/23
f 5/10/10 16/9/9 30/40/27
f 21/37/30 23/48/32 14/14/14
f 23/49/32 21/39/30 16/9/9
f 28/42/4 26/27/8 10/26/23
f 6/11/11 8/33/29 20/32/28
f 12/6/6 26/8/8 28/4/4
f 17/29/25 4/7/7 12/6/6
f 18/50/26 17/47/25 7/28/24
f 2/13/13 4/7/7 18/30/26
f 5/10/10 18/50/26 7/28/24
f 3/43/31 1/12/12 20/34/28
f 19/46/22 6/11/11 20/32/28
f 13/23/21 14/14/14 23/51/32
f 1/12/12 13/23/21 19/25/22
f 6/11/11 19/46/22 15/18/17
f 11/3/3 3/43/31 27/38/15
f 27/15/15 20/32/28 9/16/16
f 29/52/5 17/29/25 12/6/6
f 18/30/26 30/31/27 2/13/13
f 7/28/24 17/47/25 10/26/23
f 18/50/26 5/10/10 30/40/27
f 6/11/11 5/10/10 8/33/29
f 15/18/17 16/9/9 6/11/11
f 8/33/29 7/28/24 9/16/16
f 3/43/31 11/3/3 4/7/7
f 1/12/12 3/43/31 2/13/13
f 13/23/21 1/12/12 14/14/14
f 24/53/20 13/23/21 23/51/32
f 16/9/9 15/18/17 23/45/32
f 11/3/3 25/2/2 12/6/6
f 9/16/16 10/26/23 25/22/2
