o dakimakura-lod-1
v -0.416886 -0.531928 -0.106789
v 0.417939 -0.531277 -0.108159
v -0.411142 0.535965 -0.107429
v 0.413432 0.533607 -0.107250
v 0.418179 -0.531558 0.085353
v -0.416200 -0.531945 0.086637
v 0.414350 0.533737 0.086142
v -0.412022 0.535494 0.086163
v 0.432017 1.109079 -0.103310
v -0.434996 1.114333 -0.102326
v 0.433219 1.110142 0.086344
v -0.433381 1.114163 0.087040
v 0.438198 -1.111501 0.086011
v -0.437166 -1.111604 0.086963
v 0.439318 -1.111670 -0.103907
v -0.437993 -1.111696 -0.102693
v -0.306177 -0.532552 -0.206137
v -0.000910 -0.532811 -0.218753
v 0.305892 -0.531756 -0.207108
v -0.299810 0.536637 -0.206804
v 0.002398 0.536697 -0.218083
v 0.302725 0.534485 -0.206425
v 0.306443 -0.532340 0.193408
v 0.000525 -0.533383 0.206951
v -0.304826 -0.532631 0.194184
v 0.303949 0.534523 0.193963
v 0.001514 0.535899 0.206260
v -0.301507 0.535669 0.193875
v 0.448873 1.348043 -0.101717
v 0.454089 1.444088 -0.096008
v -0.449514 1.352486 -0.102061
v -0.451090 1.447319 -0.094759
v 0.454986 1.444943 0.073170
v 0.450073 1.349016 0.080376
v -0.450890 1.447277 0.074222
v -0.448854 1.352362 0.085028
v -0.315624 1.118503 0.191410
v 0.000207 1.118828 0.203095
v 0.317071 1.115989 0.191098
v -0.317424 1.118535 -0.199106
v -0.000727 1.118106 -0.225801
v 0.315086 1.113756 -0.199898
v 0.450544 -1.350533 0.085552
v 0.452279 -1.445621 0.074489
v -0.451510 -1.349899 0.083390
v -0.455614 -1.445233 0.076880
v 0.453018 -1.446128 -0.093359
v 0.451821 -1.351005 -0.101281
v -0.455577 -1.445344 -0.092032
v -0.451684 -1.350011 -0.098591
v -0.320921 -1.116347 -0.202644
v -0.000259 -1.117927 -0.229024
v 0.322140 -1.116824 -0.200511
v -0.319429 -1.116313 0.191389
v -0.000648 -1.118817 0.204514
v 0.319375 -1.116174 0.190613
v -0.315175 1.361602 0.160728
v -0.305376 1.450078 0.114949
v 0.002241 1.361446 0.176774
v 0.002094 1.440775 0.111655
v 0.318893 1.359364 0.158669
v 0.309393 1.448092 0.112744
v -0.316277 1.361704 -0.186359
v -0.306107 1.449963 -0.145180
v 0.000498 1.360205 -0.214475
v 0.001065 1.439493 -0.166542
v 0.317159 1.357589 -0.188549
v 0.308140 1.446696 -0.148471
v -0.309870 -1.448218 -0.141861
v -0.319842 -1.359713 -0.183580
v -0.002474 -1.440485 -0.162617
v -0.001407 -1.361642 -0.219678
v 0.306866 -1.449609 -0.142901
v 0.318161 -1.361116 -0.183677
v -0.309856 -1.448308 0.118697
v -0.319582 -1.359645 0.163789
v -0.002612 -1.440781 0.115011
v -0.002331 -1.361102 0.180495
v 0.306043 -1.448938 0.117800
v 0.316473 -1.360120 0.163354
v 0.434555 0.534087 -0.001716
v 0.438829 -0.531797 -0.002616
v -0.437205 -0.532328 -0.001211
v -0.432239 0.536175 -0.001767
v 0.442602 -1.543393 -0.004457
v -0.445605 -1.542448 -0.000772
v -0.439725 1.544416 -0.006800
v 0.445193 1.542820 -0.001669
v -0.456898 1.114247 0.000944
v 0.455319 1.109544 0.000055
v 0.461788 -1.111454 -0.000415
v -0.460331 -1.111603 0.000803
v 0.503634 -1.520222 -0.004704
v -0.500078 1.528519 -0.005889
v 0.294893 -1.507649 -0.008656
v -0.002783 -1.491402 -0.020714
v -0.300771 -1.506751 -0.006569
v -0.296826 1.510098 -0.010273
v 0.001891 1.487556 -0.023879
v 0.297847 1.506000 -0.013260
v -0.463193 1.351328 -0.000848
v -0.487035 1.440420 -0.001973
v 0.505793 1.524465 0.000349
v 0.489555 1.437713 -0.002211
v 0.476502 1.346018 -0.002045
v 0.465940 -1.349479 -0.000434
v 0.489082 -1.438900 -0.001728
v -0.505655 -1.523136 -0.002004
v -0.490736 -1.438459 0.000073
v -0.478812 -1.347555 0.000525
vn 0.1115 0.6768 -0.7276
vn -0.1332 0.9911 0.0037
vn 0.1241 0.9914 0.0408
vn -0.2981 -0.2245 -0.9277
vn -0.1094 -0.6888 -0.7166
vn -0.6471 -0.2974 -0.7020
vn -0.9995 0.0213 0.0213
vn -0.8571 0.0349 -0.5140
vn -0.9983 0.0535 0.0210
vn -0.0600 0.6864 0.7248
vn -0.1048 0.9942 0.0232
vn -0.7862 0.6175 0.0233
vn 0.8037 0.5921 0.0580
vn -0.8477 -0.0428 0.5288
vn -0.9997 -0.0175 0.0152
vn -0.8697 -0.0117 0.4934
vn 0.9980 -0.0609 0.0159
vn 0.8707 -0.0139 0.4917
vn 0.9998 -0.0161 0.0142
vn 0.6110 0.2548 0.7495
vn 0.0418 0.6792 0.7327
vn -0.8057 -0.5918 0.0245
vn 0.0098 -0.0174 -0.9998
vn 0.2869 -0.2191 -0.9325
vn 0.0033 -0.3087 -0.9512
vn -0.3782 -0.0152 -0.9256
vn 0.9887 0.1446 0.0390
vn 0.9898 0.1415 0.0146
vn 0.8042 -0.0036 0.5944
vn -0.8052 -0.0005 0.5930
vn -0.6038 0.2994 0.7387
vn -0.9903 -0.1335 0.0388
vn -0.8687 0.0146 -0.4952
vn 0.0002 -0.8067 0.5909
vn -0.0015 -1.0000 -0.0035
vn -0.1303 -0.9914 0.0142
vn 0.1350 0.9907 0.0154
vn -0.1032 0.6807 -0.7253
vn -0.6461 0.2960 -0.7035
vn 0.0065 1.0000 -0.0048
vn 0.0203 0.8050 0.5930
vn -0.9988 -0.0414 0.0243
vn 0.8659 0.0158 -0.5000
vn 0.8660 -0.0088 -0.5000
vn 0.9996 0.0198 0.0176
vn 0.8475 0.0376 0.5295
vn 0.9992 0.0350 0.0215
vn 0.2415 0.2712 0.9317
vn 0.8518 -0.0394 0.5224
vn 0.3915 -0.0040 0.9201
vn 0.0149 0.3773 0.9260
vn -0.0012 0.0584 0.9983
vn 0.3603 0.0363 0.9321
vn -0.2406 0.2623 0.9345
vn -0.3685 -0.0006 -0.9296
vn 0.0025 0.0041 -1.0000
vn -0.3778 0.0069 -0.9259
vn -0.3900 0.0061 0.9208
vn -0.8672 0.0186 0.4976
vn -0.0029 -0.0020 -1.0000
vn 0.3675 0.0025 -0.9300
vn 0.3756 -0.0020 -0.9268
vn 0.0013 -0.0018 1.0000
vn -0.3928 -0.0020 0.9196
vn -0.8476 0.0386 0.5293
vn 0.3932 0.0027 0.9195
vn 0.0004 0.0025 1.0000
vn 0.8679 0.0138 0.4965
vn -0.3552 0.0329 0.9342
vn -0.8573 -0.0327 -0.5138
vn -0.8662 -0.0139 -0.4995
vn 0.0677 -0.6880 0.7225
vn 0.1688 -0.9851 0.0332
vn 0.8195 -0.5727 0.0225
vn 0.8561 0.0261 -0.5161
vn 0.0010 0.7624 -0.6472
vn 0.7837 -0.0100 0.6211
vn 0.8247 0.0162 -0.5654
vn -0.3644 0.0083 -0.9312
vn 0.9907 -0.1330 0.0295
vn 0.9941 -0.1062 0.0199
vn 0.8042 -0.0310 -0.5935
vn -0.2830 0.2129 -0.9352
vn -0.8279 -0.0277 -0.5602
vn -0.0051 0.0212 -0.9998
vn -0.0023 0.2778 -0.9606
vn 0.3688 0.0077 -0.9295
vn 0.2901 0.1988 -0.9361
vn 0.8481 -0.0441 -0.5280
vn 0.6535 0.2958 -0.6968
vn -0.0030 -0.7861 -0.6181
vn 0.1321 -0.9911 0.0145
vn 0.1067 -0.6866 -0.7191
vn -0.9886 -0.1503 0.0109
vn -0.6136 -0.2797 0.7384
vn -0.0638 -0.6858 0.7250
vn -0.8062 0.0172 -0.5914
vn -0.1372 -0.9893 0.0499
vn 0.3657 -0.0160 -0.9306
vn 0.6371 -0.3156 -0.7032
vn -0.3596 -0.0305 0.9326
vn -0.2560 -0.2506 0.9336
vn -0.7836 0.0087 0.6212
vn 0.0027 -0.0529 0.9986
vn 0.0021 -0.3627 0.9319
vn 0.3586 -0.0292 0.9330
vn 0.2481 -0.2566 0.9341
vn 0.6033 -0.3084 0.7355
vn -0.9948 0.0998 0.0228
vn -0.9920 0.1215 0.0346
vt 0.113691 0.954481
vt 0.113691 0.997740
vt 0.045519 0.997710
vt 0.386380 0.075818
vt 0.386380 0.045519
vt 0.454552 0.045519
vt 0.495753 0.333357
vt 0.454552 0.151564
vt 0.495668 0.151564
vt 0.613699 0.954481
vt 0.545527 0.997049
vt 0.507898 0.984780
vt 0.006219 0.984695
vt 0.545527 0.848436
vt 0.505804 0.666643
vt 0.545527 0.666643
vt 0.994156 0.848436
vt 0.954560 0.666643
vt 0.994272 0.666643
vt 0.954560 0.954481
vt 0.992289 0.984780
vt 0.886388 0.954481
vt 0.493838 0.015306
vt 0.250035 0.151564
vt 0.113691 0.075818
vt 0.250035 0.075818
vt 0.386380 0.151564
vt 0.993707 0.045519
vt 0.993905 0.075818
vt 0.954560 0.075818
vt 0.545527 0.924183
vt 0.545527 0.954481
vt 0.506355 0.954481
vt 0.454552 0.333357
vt 0.750044 0.045519
vt 0.750044 0.003055
vt 0.886388 0.003046
vt 0.613699 0.996923
vt 0.386380 0.954481
vt 0.454552 0.954481
vt 0.493805 0.984694
vt 0.750044 0.996898
vt 0.750044 0.954481
vt 0.886388 0.996937
vt 0.505921 0.848436
vt 0.004327 0.666643
vt 0.045519 0.333357
vt 0.045519 0.666643
vt 0.994273 0.333357
vt 0.954560 0.151564
vt 0.994153 0.151564
vt 0.886388 0.924183
vt 0.954560 0.848436
vt 0.886388 0.666643
vt 0.750044 0.924183
vt 0.750044 0.848436
vt 0.886388 0.848436
vt 0.613699 0.924183
vt 0.386380 0.666643
vt 0.250035 0.333357
vt 0.386380 0.333357
vt 0.613699 0.333357
vt 0.545527 0.333357
vt 0.250035 0.666643
vt 0.113691 0.333357
vt 0.113691 0.666643
vt 0.750044 0.333357
vt 0.613699 0.666643
vt 0.505921 0.151564
vt 0.545527 0.151564
vt 0.886388 0.333357
vt 0.750044 0.666643
vt 0.954560 0.333357
vt 0.613699 0.848436
vt 0.505802 0.333357
vt 0.454552 0.848436
vt 0.454552 0.666643
vt 0.495668 0.848436
vt 0.495754 0.666643
vt 0.886388 0.045519
vt 0.954560 0.002908
vt 0.992393 0.015220
vt 0.004329 0.333357
vt 0.045519 0.151564
vt 0.386380 0.997727
vt 0.250035 0.997747
vt 0.250035 0.954481
vt 0.954560 0.924183
vt 0.004624 0.075818
vt 0.045519 0.075818
vt 0.386380 0.848436
vt 0.004798 0.954481
vt 0.004574 0.924182
vt 0.045519 0.924182
vt 0.386380 0.924183
vt 0.454552 0.924182
vt 0.250035 0.848436
vt 0.250035 0.924183
vt 0.113691 0.848436
vt 0.113691 0.924183
vt 0.045519 0.848436
vt 0.004574 0.924183
vt 0.045519 0.954481
vt 0.993958 0.924183
vt 0.993693 0.954481
vt 0.250035 0.045519
vt 0.250035 0.002215
vt 0.386380 0.002277
vt 0.113691 0.002251
vt 0.113691 0.045519
vt 0.045519 0.002279
vt 0.495467 0.924183
vt 0.545527 0.045519
vt 0.507846 0.015220
vt 0.613699 0.045519
vt 0.454552 0.075818
vt 0.454552 0.002291
vt 0.495297 0.954481
vt 0.954560 0.997067
vt 0.113691 0.151564
vt 0.613699 0.003075
vt 0.386380 0.002277
vt 0.454552 0.002291
vt 0.045519 0.045519
vt 0.545527 0.002937
vt 0.613699 0.151564
vt 0.006176 0.015305
vt 0.613699 0.075818
vt 0.545527 0.075818
vt 0.750044 0.151564
vt 0.613699 0.003075
vt 0.750044 0.075818
vt 0.886388 0.151564
vt 0.886388 0.003046
vt 0.954560 0.002908
vt 0.113691 0.002251
vt 0.886388 0.075818
vt 0.954560 0.045519
vt 0.250035 0.002215
vt 0.004801 0.045519
vt 0.495511 0.075818
vt 0.004801 0.045519
vt 0.006176 0.015305
vt 0.495291 0.045519
vt 0.506114 0.075818
vt 0.506375 0.045519
vt 0.004413 0.848436
vt 0.506162 0.924183
vt 0.004417 0.151564
vt 0.454552 0.997699
s 1
f 68/1/1 100/2/2 88/3/3
f 70/4/4 69/5/5 49/6/6
f 83/7/7 16/8/8 92/9/9
f 58/10/10 87/11/11 94/12/12
f 68/1/1 88/3/3 103/13/13
f 12/14/14 84/15/15 8/16/16
f 90/17/17 7/18/18 81/19/19
f 33/20/20 103/21/13 62/22/21
f 49/6/6 69/5/5 108/23/22
f 52/24/23 74/25/24 72/26/25
f 51/27/26 72/26/25 70/4/4
f 107/28/27 106/29/28 43/30/29
f 36/31/30 35/32/31 102/33/32
f 1/34/33 51/27/26 16/8/8
f 77/35/34 96/36/35 95/37/36
f 58/10/10 98/38/37 87/11/11
f 64/39/38 32/40/39 94/41/12
f 99/42/40 60/43/41 100/44/2
f 36/31/30 89/45/42 12/14/14
f 60/43/41 99/42/40 98/38/37
f 81/46/19 2/47/43 4/48/44
f 82/49/45 13/50/46 91/51/47
f 33/20/20 62/22/21 61/52/48
f 60/43/41 61/52/48 62/22/21
f 11/53/49 26/54/50 7/18/18
f 58/10/10 59/55/51 60/43/41
f 38/56/52 26/54/50 39/57/53
f 57/58/54 58/10/10 35/32/31
f 20/59/55 18/60/56 17/61/57
f 25/62/58 8/16/16 6/63/59
f 21/64/60 19/65/61 18/60/56
f 22/66/62 2/47/43 19/65/61
f 24/67/63 28/68/64 25/62/58
f 6/63/59 92/69/9 14/70/65
f 23/71/66 27/72/67 24/67/63
f 7/18/18 23/71/66 5/73/68
f 37/74/69 27/72/67 38/56/52
f 83/75/7 8/16/16 84/15/15
f 10/76/70 20/59/55 3/77/71
f 89/78/42 3/77/71 84/79/15
f 1/34/33 84/79/15 3/77/71
f 79/80/72 85/81/73 93/82/74
f 37/74/69 8/16/16 28/68/64
f 37/74/69 57/58/54 36/31/30
f 82/83/45 15/84/75 2/47/43
f 98/85/37 99/86/40 66/87/76
f 57/58/54 38/56/52 59/55/51
f 64/39/38 98/85/37 66/87/76
f 59/55/51 39/57/53 61/52/48
f 68/1/1 66/87/76 100/2/2
f 34/88/77 61/52/48 39/57/53
f 15/84/75 106/89/28 48/90/78
f 40/91/79 21/64/60 20/59/55
f 104/92/80 105/93/81 29/94/82
f 32/40/39 64/39/38 63/95/83
f 31/96/84 63/95/83 40/91/79
f 41/97/85 22/66/62 21/64/60
f 63/95/83 41/97/85 40/91/79
f 64/39/38 66/87/76 65/98/86
f 42/99/87 4/48/44 22/66/62
f 65/98/86 42/99/87 41/97/85
f 68/1/1 67/100/88 65/98/86
f 58/10/10 60/43/41 98/38/37
f 29/94/82 9/101/89 42/99/87
f 105/102/81 9/101/89 29/94/82
f 30/103/90 29/94/82 67/100/88
f 105/104/81 11/53/49 90/17/17
f 66/87/76 99/86/40 100/2/2
f 34/88/77 105/104/81 104/105/80
f 33/20/20 104/105/80 103/21/13
f 103/13/13 104/92/80 30/103/90
f 71/106/91 96/107/35 97/108/92
f 95/109/36 73/110/93 85/111/73
f 101/112/94 10/76/70 89/78/42
f 46/113/95 108/114/22 75/115/96
f 30/103/90 68/1/1 103/13/13
f 17/61/57 52/24/23 51/27/26
f 51/27/26 70/4/4 50/116/97
f 69/5/5 86/117/98 108/23/22
f 102/118/32 32/40/39 31/96/84
f 100/44/2 62/22/21 88/119/3
f 72/26/25 71/106/91 69/5/5
f 18/60/56 53/120/99 52/24/23
f 75/115/96 97/121/92 77/35/34
f 69/5/5 97/122/92 86/123/98
f 72/26/25 74/25/24 73/110/93
f 19/65/61 15/84/75 53/120/99
f 74/25/24 48/90/78 47/124/100
f 108/114/22 86/125/98 75/115/96
f 53/120/99 15/84/75 48/90/78
f 25/62/58 14/70/65 54/126/101
f 47/124/100 93/127/74 73/110/93
f 76/128/102 45/129/103 46/113/95
f 93/127/74 85/111/73 73/110/93
f 54/126/101 14/70/65 45/129/103
f 24/67/63 54/126/101 55/130/104
f 97/131/92 75/115/96 86/125/98
f 75/115/96 77/35/34 78/132/105
f 54/126/101 78/132/105 55/130/104
f 23/71/66 55/130/104 56/133/106
f 79/80/72 95/134/36 85/135/73
f 71/106/91 73/110/93 95/136/36
f 78/132/105 77/35/34 79/80/72
f 55/130/104 80/137/107 56/133/106
f 5/73/68 56/133/106 13/50/46
f 80/137/107 79/80/72 44/138/108
f 96/139/35 71/106/91 95/136/36
f 56/133/106 80/137/107 43/30/29
f 107/140/27 47/124/100 48/90/78
f 92/9/9 50/116/97 110/141/109
f 47/124/100 107/142/27 93/143/74
f 93/82/74 107/28/27 44/138/108
f 50/116/97 49/6/6 109/144/110
f 14/70/65 110/145/109 45/129/103
f 79/80/72 77/35/34 95/37/36
f 109/146/110 46/113/95 45/129/103
f 91/51/47 43/30/29 106/29/28
f 103/21/13 88/119/3 62/22/21
f 69/5/5 71/106/91 97/108/92
f 7/18/18 82/49/45 81/19/19
f 90/147/17 4/48/44 9/101/89
f 68/1/1 30/103/90 67/100/88
f 34/88/77 33/20/20 61/52/48
f 36/31/30 57/58/54 35/32/31
f 102/33/32 35/32/31 94/12/12
f 102/118/32 94/41/12 32/40/39
f 31/96/84 32/40/39 63/95/83
f 75/115/96 76/128/102 46/113/95
f 109/146/110 108/114/22 46/113/95
f 109/144/110 49/6/6 108/23/22
f 50/116/97 70/4/4 49/6/6
f 73/110/93 74/25/24 47/124/100
f 43/30/29 80/137/107 44/138/108
f 97/121/92 96/36/35 77/35/34
f 12/14/14 37/74/69 36/31/30
f 101/148/94 36/31/30 102/33/32
f 11/53/49 34/88/77 39/57/53
f 33/20/20 34/88/77 104/105/80
f 30/103/90 104/92/80 29/94/82
f 67/100/88 29/94/82 42/99/87
f 101/112/94 102/118/32 31/96/84
f 10/76/70 31/96/84 40/91/79
f 106/89/28 107/140/27 48/90/78
f 74/25/24 53/120/99 48/90/78
f 44/138/108 107/28/27 43/30/29
f 13/50/46 56/133/106 43/30/29
f 110/141/109 50/116/97 109/144/110
f 16/8/8 51/27/26 50/116/97
f 110/145/109 109/146/110 45/129/103
f 76/128/102 54/126/101 45/129/103
f 44/138/108 79/80/72 93/82/74
f 70/4/4 72/26/25 69/5/5
f 71/106/91 72/26/25 73/110/93
f 76/128/102 75/115/96 78/132/105
f 80/137/107 78/132/105 79/80/72
f 66/87/76 68/1/1 65/98/86
f 63/95/83 64/39/38 65/98/86
f 60/43/41 62/22/21 100/44/2
f 3/77/71 17/61/57 1/34/33
f 83/7/7 1/34/33 16/8/8
f 12/14/14 89/45/42 84/15/15
f 90/17/17 11/53/49 7/18/18
f 52/24/23 53/120/99 74/25/24
f 51/27/26 52/24/23 72/26/25
f 1/34/33 17/61/57 51/27/26
f 36/31/30 101/148/94 89/45/42
f 81/46/19 82/83/45 2/47/43
f 82/49/45 5/73/68 13/50/46
f 60/43/41 59/55/51 61/52/48
f 11/53/49 39/57/53 26/54/50
f 58/10/10 57/58/54 59/55/51
f 38/56/52 27/72/67 26/54/50
f 20/59/55 21/64/60 18/60/56
f 25/62/58 28/68/64 8/16/16
f 21/64/60 22/66/62 19/65/61
f 22/66/62 4/48/44 2/47/43
f 24/67/63 27/72/67 28/68/64
f 6/63/59 83/75/7 92/69/9
f 23/71/66 26/54/50 27/72/67
f 7/18/18 26/54/50 23/71/66
f 37/74/69 28/68/64 27/72/67
f 83/75/7 6/63/59 8/16/16
f 10/76/70 40/91/79 20/59/55
f 89/78/42 10/76/70 3/77/71
f 1/34/33 83/7/7 84/79/15
f 37/74/69 12/14/14 8/16/16
f 82/83/45 91/149/47 15/84/75
f 57/58/54 37/74/69 38/56/52
f 59/55/51 38/56/52 39/57/53
f 15/84/75 91/149/47 106/89/28
f 40/91/79 41/97/85 21/64/60
f 41/97/85 42/99/87 22/66/62
f 63/95/83 65/98/86 41/97/85
f 42/99/87 9/101/89 4/48/44
f 65/98/86 67/100/88 42/99/87
f 105/102/81 90/147/17 9/101/89
f 105/104/81 34/88/77 11/53/49
f 101/112/94 31/96/84 10/76/70
f 17/61/57 18/60/56 52/24/23
f 18/60/56 19/65/61 53/120/99
f 19/65/61 2/47/43 15/84/75
f 25/62/58 6/63/59 14/70/65
f 24/67/63 25/62/58 54/126/101
f 54/126/101 76/128/102 78/132/105
f 23/71/66 24/67/63 55/130/104
f 55/130/104 78/132/105 80/137/107
f 5/73/68 23/71/66 56/133/106
f 92/9/9 16/8/8 50/116/97
f 14/70/65 92/69/9 110/145/109
f 91/51/47 13/50/46 43/30/29
f 7/18/18 5/73/68 82/49/45
f 90/147/17 81/46/19 4/48/44
f 3/77/71 20/59/55 17/61/57
f 87/150/11 98/85/37 64/39/38
f 87/150/11 64/39/38 94/41/12
f 35/32/31 58/10/10 94/12/12
